<svg width="38" height="40" viewBox="0 0 38 40" fill="none" xmlns="http://www.w3.org/2000/svg">
<path d="M6.15234 20.1592C6.15243 19.6563 6.61705 19.2817 7.1084 19.3887C11.6839 20.3859 15.3826 23.7435 16.8174 28.2012L17.9619 31.7568C18.2065 32.517 17.6394 33.2949 16.8408 33.2949H13.1895C9.30299 33.2949 6.15234 30.1443 6.15234 26.2578V20.1592ZM14.8291 6.15234C15.0124 6.15234 15.1639 6.29549 15.1738 6.47852C15.3816 10.3173 17.1811 13.8955 20.1387 16.3516L31.0674 25.4258C31.3323 25.6458 31.4854 25.973 31.4854 26.3174V26.499C31.4851 30.2523 28.4427 33.2947 24.6895 33.2949H23.3105C23.0072 33.2949 22.7469 33.0785 22.6914 32.7803C21.3051 25.3269 16.6349 18.8946 9.97754 15.2676L6.58691 13.4199C6.31921 13.2741 6.15234 12.9933 6.15234 12.6885V12.3467C6.15247 8.92561 8.92561 6.15247 12.3467 6.15234H14.8291ZM24.7334 6.15332C28.4624 6.15332 31.4854 9.34013 31.4854 13.2715V17.9102C31.4851 18.8301 30.5879 19.4415 29.7949 19.0723C29.7791 19.0649 29.7627 19.0581 29.7461 19.0527C29.2507 18.8929 28.7771 18.6697 28.3408 18.3857C21.4722 13.9149 21.0036 12.4857 19.3477 7.74707C19.0774 6.97384 19.8854 6.15352 20.667 6.15332H24.7334Z" fill="#0057FE"/>
</svg>
