<svg width="144" height="40" viewBox="0 0 144 40" fill="none" xmlns="http://www.w3.org/2000/svg">
<path d="M6.15234 20.1592C6.15243 19.6563 6.61705 19.2817 7.1084 19.3887C11.6839 20.3859 15.3826 23.7435 16.8174 28.2012L17.9619 31.7568C18.2065 32.517 17.6394 33.2949 16.8408 33.2949H13.1895C9.30299 33.2949 6.15234 30.1443 6.15234 26.2578V20.1592ZM14.8291 6.15234C15.0124 6.15234 15.1639 6.29549 15.1738 6.47852C15.3816 10.3173 17.1811 13.8955 20.1387 16.3516L31.0674 25.4258C31.3323 25.6458 31.4854 25.973 31.4854 26.3174V26.499C31.4851 30.2523 28.4427 33.2947 24.6895 33.2949H23.3105C23.0072 33.2949 22.7469 33.0785 22.6914 32.7803C21.3051 25.3269 16.6349 18.8946 9.97754 15.2676L6.58691 13.4199C6.31921 13.2741 6.15234 12.9933 6.15234 12.6885V12.3467C6.15247 8.92561 8.92561 6.15247 12.3467 6.15234H14.8291ZM24.7334 6.15332C28.4624 6.15332 31.4854 9.34013 31.4854 13.2715V17.9102C31.4851 18.8301 30.5879 19.4415 29.7949 19.0723C29.7791 19.0649 29.7627 19.0581 29.7461 19.0527C29.2507 18.8929 28.7771 18.6697 28.3408 18.3857C21.4722 13.9149 21.0036 12.4857 19.3477 7.74707C19.0774 6.97384 19.8854 6.15352 20.667 6.15332H24.7334Z" fill="#0057FE"/>
<path d="M51.3539 19.3094C49.5461 19.3094 48.0611 18.6638 46.899 17.3725L48.5292 15.7584C49.3255 16.6838 50.3209 17.1465 51.5154 17.1465C52.1502 17.1465 52.6345 17.012 52.9681 16.743C53.3016 16.474 53.4684 16.1027 53.4684 15.6293C53.4684 15.2526 53.3554 14.9513 53.1295 14.7253C52.9143 14.4994 52.5376 14.3487 51.9996 14.2734L50.8536 14.112C48.4539 13.7784 47.2541 12.6109 47.2541 10.6093C47.2541 9.9099 47.4316 9.29115 47.7867 8.75311C48.1418 8.21507 48.6476 7.80078 49.304 7.51024C49.9712 7.20894 50.7513 7.05829 51.6445 7.05829C53.3662 7.05829 54.7221 7.62323 55.7121 8.75311L54.0818 10.3672C53.7697 10.0014 53.4039 9.72158 52.9842 9.52789C52.5753 9.32344 52.0803 9.22121 51.4992 9.22121C50.9074 9.22121 50.4608 9.32882 50.1595 9.54403C49.8582 9.75925 49.7075 10.0659 49.7075 10.4641C49.7075 10.873 49.8205 11.1797 50.0465 11.3841C50.2832 11.5778 50.6706 11.7177 51.2087 11.8038L52.3547 11.9975C53.5707 12.2127 54.4692 12.6001 55.0503 13.1597C55.6314 13.7192 55.9219 14.494 55.9219 15.484C55.9219 16.2372 55.739 16.9044 55.3731 17.4855C55.018 18.0558 54.4961 18.5024 53.8074 18.8252C53.1187 19.148 52.3009 19.3094 51.3539 19.3094ZM57.9458 19.0996V6.55791H60.3347V11.7069H60.4154C60.5984 11.1904 60.8889 10.7815 61.2871 10.4802C61.696 10.1682 62.2286 10.0121 62.885 10.0121C63.789 10.0121 64.483 10.3188 64.9673 10.9322C65.4515 11.5455 65.6936 12.4118 65.6936 13.5309V19.0996H63.3047V13.7246C63.3047 13.122 63.1971 12.6754 62.9819 12.3849C62.7774 12.0943 62.4439 11.9491 61.9811 11.9491C61.5184 11.9491 61.1257 12.0674 60.8028 12.3042C60.4908 12.5409 60.3347 12.8745 60.3347 13.3049V19.0996H57.9458ZM71.5859 19.3094C70.7358 19.3094 69.9987 19.1211 69.3746 18.7445C68.7504 18.3679 68.2716 17.8298 67.938 17.1304C67.6044 16.4309 67.4376 15.6077 67.4376 14.6608C67.4376 13.7138 67.6044 12.8906 67.938 12.1912C68.2716 11.4917 68.7504 10.9537 69.3746 10.5771C69.9987 10.2004 70.7358 10.0121 71.5859 10.0121C72.436 10.0121 73.1731 10.2004 73.7972 10.5771C74.4214 10.9537 74.9002 11.4917 75.2338 12.1912C75.5674 12.8906 75.7342 13.7138 75.7342 14.6608C75.7342 15.6077 75.5674 16.4309 75.2338 17.1304C74.9002 17.8298 74.4214 18.3679 73.7972 18.7445C73.1731 19.1211 72.436 19.3094 71.5859 19.3094ZM71.5859 17.4209C72.1132 17.4209 72.5221 17.2595 72.8126 16.9367C73.1032 16.6031 73.2484 16.135 73.2484 15.5324V13.7892C73.2484 13.1866 73.1032 12.7238 72.8126 12.401C72.5221 12.0674 72.1132 11.9006 71.5859 11.9006C71.0586 11.9006 70.6497 12.0674 70.3592 12.401C70.0686 12.7238 69.9234 13.1866 69.9234 13.7892V15.5324C69.9234 16.135 70.0686 16.6031 70.3592 16.9367C70.6497 17.2595 71.0586 17.4209 71.5859 17.4209ZM77.5549 22.4893V10.222H79.9437V11.7069H80.0245C80.1751 11.2012 80.4656 10.7923 80.8961 10.4802C81.3373 10.1682 81.8484 10.0121 82.4295 10.0121C83.5486 10.0121 84.3987 10.4103 84.9798 11.2066C85.5716 12.0029 85.8676 13.1543 85.8676 14.6608C85.8676 16.1565 85.5716 17.3079 84.9798 18.115C84.3987 18.9113 83.5486 19.3094 82.4295 19.3094C81.8592 19.3094 81.348 19.1534 80.8961 18.8414C80.4549 18.5185 80.159 18.1096 80.0083 17.6146H79.9437V22.4893H77.5549ZM81.6386 17.3725C82.1551 17.3725 82.5748 17.195 82.8976 16.8398C83.2204 16.474 83.3818 16.0005 83.3818 15.4194V13.9021C83.3818 13.3211 83.2204 12.853 82.8976 12.4979C82.5748 12.132 82.1551 11.9491 81.6386 11.9491C81.1436 11.9491 80.7347 12.0728 80.4118 12.3203C80.0998 12.5678 79.9437 12.896 79.9437 13.3049V16.0005C79.9437 16.4202 80.0998 16.7538 80.4118 17.0013C80.7239 17.2488 81.1328 17.3725 81.6386 17.3725ZM90.7707 19.3094C89.9529 19.3094 89.248 19.1749 88.6562 18.9059C88.0644 18.6369 87.5317 18.2334 87.0582 17.6953L88.4948 16.2749C89.1727 17.0604 89.9636 17.4532 90.8675 17.4532C91.7822 17.4532 92.2395 17.1465 92.2395 16.5332C92.2395 16.2964 92.1588 16.1135 91.9974 15.9844C91.8468 15.8445 91.6047 15.753 91.2711 15.71L90.3349 15.597C89.3449 15.4678 88.6024 15.1827 88.1074 14.7415C87.6124 14.3003 87.3649 13.6816 87.3649 12.8853C87.3649 12.3149 87.5048 11.8146 87.7846 11.3841C88.0644 10.9537 88.4625 10.6201 88.979 10.3834C89.4955 10.1359 90.0928 10.0121 90.7707 10.0121C91.6316 10.0121 92.3202 10.1251 92.8368 10.3511C93.364 10.5771 93.8644 10.9268 94.3379 11.4003L92.9659 12.8045C92.6754 12.514 92.3525 12.288 91.9974 12.1266C91.6423 11.9544 91.2765 11.8684 90.8998 11.8684C90.4802 11.8684 90.1681 11.9437 89.9636 12.0943C89.7592 12.2342 89.657 12.4333 89.657 12.6916C89.657 12.9498 89.7323 13.1489 89.8829 13.2888C90.0336 13.4287 90.2918 13.5255 90.6577 13.5793L91.6262 13.7085C93.5631 13.9667 94.5316 14.8545 94.5316 16.3718C94.5316 16.9421 94.3756 17.4478 94.0635 17.889C93.7514 18.3302 93.3102 18.6799 92.7399 18.9382C92.1696 19.1857 91.5132 19.3094 90.7707 19.3094ZM101.01 19.3094C99.4925 19.3094 98.3088 18.7875 97.4587 17.7438C96.6086 16.6892 96.1835 15.1719 96.1835 13.1919C96.1835 11.212 96.6086 9.69468 97.4587 8.64013C98.3088 7.58557 99.4925 7.05829 101.01 7.05829C102.527 7.05829 103.711 7.58557 104.561 8.64013C105.411 9.69468 105.836 11.212 105.836 13.1919C105.836 15.1719 105.411 16.6892 104.561 17.7438C103.711 18.7875 102.527 19.3094 101.01 19.3094ZM101.026 18.454C101.79 18.454 102.457 18.2764 103.027 17.9213C103.598 17.5554 104.034 17.0335 104.335 16.3556C104.647 15.6669 104.803 14.8491 104.803 13.9021V12.4656C104.803 11.5186 104.647 10.7062 104.335 10.0283C104.034 9.33958 103.598 8.81768 103.027 8.46257C102.457 8.09671 101.79 7.91377 101.026 7.91377C100.262 7.91377 99.5893 8.09671 99.0082 8.46257C98.4379 8.81768 97.9967 9.33958 97.6847 10.0283C97.3726 10.7062 97.2166 11.5186 97.2166 12.4656V13.9021C97.2166 14.8491 97.3726 15.6669 97.6847 16.3556C97.9967 17.0335 98.4379 17.5554 99.0082 17.9213C99.5893 18.2764 100.262 18.454 101.026 18.454ZM108.491 19.0996V10.4318H109.411V11.7877H109.475C109.68 11.3142 109.992 10.9376 110.411 10.6578C110.831 10.378 111.375 10.2381 112.042 10.2381C112.967 10.2381 113.688 10.5233 114.205 11.0936C114.721 11.6639 114.979 12.4763 114.979 13.5309V19.0996H114.059V13.7085C114.059 11.9437 113.306 11.0613 111.8 11.0613C111.132 11.0613 110.568 11.2335 110.105 11.5778C109.642 11.9114 109.411 12.3903 109.411 13.0144V19.0996H108.491ZM119.076 19.0996C118.743 19.0996 118.485 19.0081 118.302 18.8252C118.119 18.6423 118.027 18.3948 118.027 18.0827V6.55791H118.947V18.2926H120.287V19.0996H119.076ZM122.972 8.02676C122.768 8.02676 122.611 7.97296 122.504 7.86535C122.396 7.75774 122.342 7.61785 122.342 7.44568V7.28427C122.342 7.10133 122.396 6.96144 122.504 6.8646C122.611 6.75699 122.768 6.70318 122.972 6.70318C123.187 6.70318 123.343 6.75699 123.44 6.8646C123.548 6.96144 123.601 7.10133 123.601 7.28427V7.44568C123.601 7.61785 123.548 7.75774 123.44 7.86535C123.343 7.97296 123.187 8.02676 122.972 8.02676ZM123.424 19.0996H122.504V10.4318H123.424V19.0996ZM126.602 19.0996V10.4318H127.522V11.7877H127.587C127.791 11.3142 128.103 10.9376 128.523 10.6578C128.943 10.378 129.486 10.2381 130.153 10.2381C131.079 10.2381 131.8 10.5233 132.316 11.0936C132.833 11.6639 133.091 12.4763 133.091 13.5309V19.0996H132.171V13.7085C132.171 11.9437 131.418 11.0613 129.911 11.0613C129.244 11.0613 128.679 11.2335 128.216 11.5778C127.754 11.9114 127.522 12.3903 127.522 13.0144V19.0996H126.602ZM139.238 19.3094C138.474 19.3094 137.807 19.1319 137.236 18.7768C136.666 18.4109 136.225 17.889 135.913 17.2111C135.611 16.5224 135.461 15.7046 135.461 14.7576C135.461 13.348 135.794 12.245 136.462 11.4487C137.14 10.6416 138.054 10.2381 139.206 10.2381C139.937 10.2381 140.578 10.4157 141.126 10.7708C141.675 11.1259 142.095 11.6262 142.385 12.2719C142.687 12.9068 142.837 13.6493 142.837 14.4994V14.919H136.429V15.371C136.429 16.3179 136.682 17.0766 137.188 17.6469C137.694 18.2172 138.393 18.5024 139.286 18.5024C139.91 18.5024 140.448 18.3517 140.9 18.0504C141.352 17.7384 141.697 17.2972 141.933 16.7269L142.611 17.1788C142.342 17.8352 141.912 18.3571 141.32 18.7445C140.739 19.1211 140.045 19.3094 139.238 19.3094ZM136.429 14.2088H141.853V14.0797C141.853 13.1543 141.611 12.4118 141.126 11.8522C140.642 11.2927 140.002 11.0129 139.206 11.0129C138.366 11.0129 137.694 11.3034 137.188 11.8845C136.682 12.4548 136.429 13.2081 136.429 14.1443V14.2088Z" fill="#0057FE"/>
<path d="M110.736 30.1169C111.287 30.1169 111.744 30.3128 112.114 30.7118C112.484 31.1035 112.673 31.5823 112.673 32.1554C112.673 32.7285 112.484 33.2073 112.114 33.6063C111.744 33.998 111.287 34.1939 110.729 34.1939C110.17 34.1939 109.713 33.9763 109.365 33.5338V34.0996H108.668V28.608H109.365V30.7988C109.72 30.3418 110.177 30.1169 110.736 30.1169ZM110.649 33.541C111.041 33.541 111.36 33.4104 111.599 33.142C111.846 32.8736 111.969 32.5399 111.969 32.1482C111.969 31.7637 111.846 31.4372 111.599 31.1688C111.36 30.9004 111.041 30.7698 110.649 30.7698C110.25 30.7698 109.931 30.9004 109.691 31.1688C109.452 31.4372 109.336 31.7637 109.336 32.1482C109.336 32.5472 109.452 32.8736 109.691 33.142C109.931 33.4104 110.25 33.541 110.649 33.541ZM114.918 33.1275L115.963 30.2112H116.732L115.099 34.5349C114.773 35.4054 114.36 35.7536 113.75 35.7536C113.496 35.7536 113.293 35.7028 113.126 35.6013L113.213 34.9919C113.395 35.0717 113.554 35.108 113.685 35.108C114.004 35.108 114.258 34.8831 114.454 34.4261L114.599 34.0851L112.909 30.2112H113.714L114.918 33.1275ZM120.024 34.0996H119.298V28.7386H122.577V29.4422H120.024V31.031H122.251V31.7347H120.024V34.0996ZM124.838 34.1939C123.822 34.1939 123.169 33.5483 123.169 32.5326V30.2112H123.865V32.5109C123.865 33.1493 124.228 33.5483 124.838 33.5483C125.454 33.5483 125.817 33.1493 125.817 32.5109V30.2112H126.506V32.5326C126.506 33.57 125.875 34.1939 124.838 34.1939ZM128.622 34.1867C128.042 34.1867 127.476 33.9037 127.179 33.3451L127.679 32.9607C127.904 33.3742 128.289 33.5773 128.644 33.5773C129.058 33.5773 129.333 33.3379 129.333 33.0405C129.333 32.8373 129.217 32.6705 128.978 32.5472C128.898 32.5036 128.731 32.4311 128.492 32.3295C128.252 32.228 128.093 32.1554 128.013 32.1119C127.614 31.8943 127.418 31.5823 127.418 31.1688C127.418 30.8569 127.534 30.5957 127.766 30.3926C127.998 30.1822 128.303 30.0806 128.688 30.0806C129.181 30.0806 129.66 30.291 129.921 30.6973L129.478 31.118C129.268 30.8206 128.992 30.6682 128.644 30.6682C128.296 30.6682 128.086 30.8786 128.086 31.1398C128.086 31.3429 128.194 31.4953 128.412 31.5968L128.84 31.7854C129.072 31.8797 129.246 31.9595 129.362 32.0248C129.805 32.2497 130.022 32.5762 130.022 33.0042C130.022 33.3379 129.892 33.6208 129.631 33.8457C129.37 34.0706 129.036 34.1867 128.622 34.1867ZM132.91 30.1169C133.462 30.1169 133.926 30.3128 134.296 30.7118C134.666 31.1108 134.855 31.5896 134.855 32.1554C134.855 32.7285 134.666 33.2073 134.296 33.6063C133.926 33.998 133.462 34.1939 132.903 34.1939C132.337 34.1939 131.88 33.9763 131.525 33.5338V35.7028H130.828V30.2112H131.525V30.7988C131.888 30.3418 132.352 30.1169 132.91 30.1169ZM134.158 32.1482C134.158 31.7564 134.035 31.43 133.788 31.1616C133.542 30.8931 133.222 30.7553 132.823 30.7553C132.424 30.7553 132.105 30.8931 131.859 31.1616C131.619 31.43 131.496 31.7637 131.496 32.1482C131.496 32.5472 131.619 32.8809 131.859 33.1493C132.105 33.4177 132.424 33.5555 132.823 33.5555C133.222 33.5555 133.542 33.4177 133.788 33.1493C134.035 32.8809 134.158 32.5472 134.158 32.1482ZM138.764 30.7771V30.2112H139.432V34.0996H138.764V33.5483C138.416 33.9763 137.959 34.1939 137.393 34.1939C136.835 34.1939 136.37 33.998 136 33.5991C135.63 33.2001 135.449 32.714 135.449 32.1264C135.449 31.546 135.63 31.0672 136 30.69C136.37 30.3055 136.835 30.1169 137.393 30.1169C137.945 30.1169 138.402 30.3345 138.764 30.7771ZM138.808 32.1482C138.808 31.7637 138.684 31.43 138.438 31.1616C138.191 30.8931 137.872 30.7553 137.473 30.7553C137.074 30.7553 136.755 30.8931 136.515 31.1616C136.276 31.43 136.153 31.7637 136.153 32.1554C136.153 32.5472 136.276 32.8809 136.515 33.1493C136.755 33.4177 137.074 33.5555 137.473 33.5555C137.872 33.5555 138.191 33.4177 138.438 33.1493C138.684 32.8809 138.808 32.5472 138.808 32.1482ZM142.08 33.1275L143.124 30.2112H143.893L142.261 34.5349C141.935 35.4054 141.521 35.7536 140.912 35.7536C140.658 35.7536 140.455 35.7028 140.288 35.6013L140.375 34.9919C140.556 35.0717 140.716 35.108 140.847 35.108C141.166 35.108 141.42 34.8831 141.616 34.4261L141.761 34.0851L140.07 30.2112H140.876L142.08 33.1275Z" fill="#4F4F4F"/>
</svg>
